<svg xmlns="http://www.w3.org/2000/svg" viewBox="0 0 512 512">
  <defs>
    <linearGradient id="bg" x1="0" y1="0" x2="1" y2="1">
      <stop offset="0%" stop-color="#0b1220" />
      <stop offset="100%" stop-color="#0a0f1e" />
    </linearGradient>
    <linearGradient id="accent" x1="0" y1="0" x2="1" y2="1">
      <stop offset="0%" stop-color="#22d3ee" />
      <stop offset="100%" stop-color="#34d399" />
    </linearGradient>
  </defs>
  <rect x="24" y="24" width="464" height="464" rx="108" fill="url(#bg)" />
  <rect x="24" y="24" width="464" height="464" rx="108" fill="none" stroke="#1f2937" stroke-width="8" />
  <path d="M256 128c17 0 31 14 31 31v66h66c17 0 31 14 31 31s-14 31-31 31h-66v66c0 17-14 31-31 31s-31-14-31-31v-66h-66c-17 0-31-14-31-31s14-31 31-31h66v-66c0-17 14-31 31-31z" fill="url(#accent)" />
</svg>
